<?xml version="1.0" encoding="UTF-8" standalone="no"?>
<!DOCTYPE svg PUBLIC "-//W3C//DTD SVG 1.1//EN" "http://www.w3.org/Graphics/SVG/1.1/DTD/svg11.dtd">
<svg width="100%" height="100%" viewBox="0 0 1422 339" version="1.1" xmlns="http://www.w3.org/2000/svg" xmlns:xlink="http://www.w3.org/1999/xlink" xml:space="preserve" xmlns:serif="http://www.serif.com/" style="fill-rule:evenodd;clip-rule:evenodd;stroke-linejoin:round;stroke-miterlimit:2;">
    <g transform="matrix(1,0,0,1,-0,-1142)">
        <g id="Plan-de-travail5" serif:id="Plan de travail5" transform="matrix(0.958867,0,0,0.683468,0,395.653226)">
            <rect x="0" y="1092" width="1483" height="496" style="fill:none;"/>
            <g transform="matrix(1.042897,0,0,1.463127,19.815049,1075.905605)">
                <g transform="matrix(288,0,0,288,32,275.088)">
                    <path d="M0.054,-0L0.054,-0.486L0.207,-0.486L0.207,-0L0.054,-0ZM0.365,-0L0.365,-0.284C0.365,-0.308 0.357,-0.327 0.343,-0.341C0.328,-0.355 0.309,-0.361 0.287,-0.361C0.271,-0.361 0.258,-0.358 0.245,-0.352C0.234,-0.346 0.224,-0.337 0.217,-0.326C0.21,-0.314 0.207,-0.3 0.207,-0.284L0.147,-0.31C0.147,-0.348 0.156,-0.381 0.173,-0.409C0.19,-0.437 0.212,-0.458 0.241,-0.473C0.27,-0.488 0.302,-0.496 0.338,-0.496C0.372,-0.496 0.402,-0.488 0.429,-0.473C0.456,-0.458 0.478,-0.436 0.494,-0.409C0.51,-0.381 0.518,-0.349 0.518,-0.31L0.518,-0L0.365,-0ZM0.676,-0L0.676,-0.284C0.676,-0.308 0.668,-0.327 0.653,-0.341C0.638,-0.355 0.62,-0.361 0.598,-0.361C0.583,-0.361 0.569,-0.358 0.557,-0.352C0.545,-0.346 0.535,-0.337 0.528,-0.326C0.521,-0.314 0.518,-0.3 0.518,-0.284L0.429,-0.295C0.431,-0.337 0.441,-0.372 0.459,-0.402C0.477,-0.432 0.502,-0.455 0.532,-0.472C0.563,-0.488 0.597,-0.496 0.635,-0.496C0.672,-0.496 0.705,-0.488 0.734,-0.473C0.763,-0.457 0.787,-0.435 0.803,-0.406C0.821,-0.377 0.829,-0.342 0.829,-0.301L0.829,-0L0.676,-0Z" style="fill:rgb(26,58,74);fill-rule:nonzero;"/>
                </g>
                <g transform="matrix(288,0,0,288,283.424,275.088)">
                    <path d="M0.257,0.01C0.212,0.01 0.172,-0.001 0.137,-0.023C0.102,-0.045 0.074,-0.075 0.054,-0.113C0.034,-0.151 0.024,-0.194 0.024,-0.242C0.024,-0.291 0.034,-0.335 0.054,-0.373C0.074,-0.411 0.102,-0.441 0.137,-0.463C0.172,-0.485 0.212,-0.496 0.257,-0.496C0.29,-0.496 0.319,-0.49 0.346,-0.477C0.372,-0.464 0.393,-0.447 0.41,-0.424C0.426,-0.402 0.436,-0.377 0.438,-0.348L0.438,-0.138C0.436,-0.109 0.426,-0.084 0.41,-0.061C0.394,-0.039 0.372,-0.022 0.346,-0.009C0.319,0.004 0.29,0.01 0.257,0.01ZM0.288,-0.128C0.321,-0.128 0.347,-0.139 0.367,-0.16C0.387,-0.182 0.397,-0.209 0.397,-0.243C0.397,-0.266 0.393,-0.286 0.384,-0.303C0.374,-0.32 0.362,-0.333 0.346,-0.343C0.329,-0.353 0.31,-0.358 0.288,-0.358C0.267,-0.358 0.248,-0.353 0.232,-0.343C0.216,-0.333 0.203,-0.32 0.193,-0.302C0.184,-0.285 0.179,-0.265 0.179,-0.243C0.179,-0.221 0.184,-0.201 0.193,-0.183C0.202,-0.166 0.215,-0.153 0.232,-0.143C0.248,-0.133 0.267,-0.128 0.288,-0.128ZM0.391,-0L0.391,-0.131L0.414,-0.249L0.391,-0.366L0.391,-0.486L0.541,-0.486L0.541,-0L0.391,-0Z" style="fill:rgb(26,58,74);fill-rule:nonzero;"/>
                </g>
                <g transform="matrix(288,0,0,288,454.784,275.088)">
                    <path d="M0.365,-0L0.195,-0.252L0.364,-0.486L0.535,-0.486L0.331,-0.223L0.336,-0.286L0.545,-0L0.365,-0ZM0.054,-0L0.054,-0.726L0.207,-0.726L0.207,-0L0.054,-0Z" style="fill:rgb(26,58,74);fill-rule:nonzero;"/>
                </g>
                <g transform="matrix(288,0,0,288,606.704,275.088)">
                    <path d="M0.054,-0L0.054,-0.486L0.207,-0.486L0.207,-0L0.054,-0ZM0.131,-0.553C0.107,-0.553 0.087,-0.561 0.072,-0.577C0.056,-0.593 0.048,-0.613 0.048,-0.637C0.048,-0.661 0.056,-0.681 0.072,-0.697C0.087,-0.713 0.107,-0.721 0.131,-0.721C0.155,-0.721 0.175,-0.713 0.19,-0.697C0.205,-0.681 0.213,-0.661 0.213,-0.637C0.213,-0.613 0.205,-0.593 0.19,-0.577C0.175,-0.561 0.155,-0.553 0.131,-0.553Z" style="fill:rgb(26,58,74);fill-rule:nonzero;"/>
                </g>
                <g transform="matrix(288,0,0,288,681.872,275.088)">
                    <rect x="0.054" y="-0.726" width="0.153" height="0.726" style="fill:rgb(26,58,74);fill-rule:nonzero;"/>
                </g>
                <g transform="matrix(288,0,0,288,757.04,275.088)">
                    <path d="M0.257,0.01C0.212,0.01 0.172,-0.001 0.137,-0.023C0.102,-0.045 0.074,-0.075 0.054,-0.113C0.034,-0.151 0.024,-0.194 0.024,-0.242C0.024,-0.291 0.034,-0.335 0.054,-0.373C0.074,-0.411 0.102,-0.441 0.137,-0.463C0.172,-0.485 0.212,-0.496 0.257,-0.496C0.29,-0.496 0.319,-0.49 0.346,-0.477C0.372,-0.464 0.393,-0.447 0.41,-0.424C0.426,-0.402 0.436,-0.377 0.438,-0.348L0.438,-0.138C0.436,-0.109 0.426,-0.084 0.41,-0.061C0.394,-0.039 0.372,-0.022 0.346,-0.009C0.319,0.004 0.29,0.01 0.257,0.01ZM0.288,-0.128C0.321,-0.128 0.347,-0.139 0.367,-0.16C0.387,-0.182 0.397,-0.209 0.397,-0.243C0.397,-0.266 0.393,-0.286 0.384,-0.303C0.374,-0.32 0.362,-0.333 0.346,-0.343C0.329,-0.353 0.31,-0.358 0.288,-0.358C0.267,-0.358 0.248,-0.353 0.232,-0.343C0.216,-0.333 0.203,-0.32 0.193,-0.302C0.184,-0.285 0.179,-0.265 0.179,-0.243C0.179,-0.221 0.184,-0.201 0.193,-0.183C0.202,-0.166 0.215,-0.153 0.232,-0.143C0.248,-0.133 0.267,-0.128 0.288,-0.128ZM0.391,-0L0.391,-0.131L0.414,-0.249L0.391,-0.366L0.391,-0.486L0.541,-0.486L0.541,-0L0.391,-0Z" style="fill:rgb(26,58,74);fill-rule:nonzero;"/>
                </g>
                <g transform="matrix(288,0,0,288,928.4,275.088)">
                    <path d="M0.334,0.01C0.301,0.01 0.271,0.003 0.243,-0.01C0.216,-0.024 0.194,-0.042 0.177,-0.065C0.16,-0.088 0.15,-0.114 0.147,-0.143L0.147,-0.348C0.15,-0.377 0.16,-0.402 0.177,-0.424C0.194,-0.447 0.217,-0.464 0.244,-0.477C0.271,-0.49 0.301,-0.496 0.334,-0.496C0.38,-0.496 0.421,-0.485 0.457,-0.463C0.492,-0.441 0.52,-0.411 0.54,-0.373C0.561,-0.335 0.571,-0.291 0.571,-0.242C0.571,-0.194 0.561,-0.151 0.54,-0.113C0.52,-0.075 0.492,-0.045 0.457,-0.023C0.421,-0.001 0.38,0.01 0.334,0.01ZM0.054,-0L0.054,-0.726L0.207,-0.726L0.207,-0.366L0.181,-0.249L0.205,-0.131L0.205,-0L0.054,-0ZM0.307,-0.128C0.328,-0.128 0.347,-0.133 0.363,-0.143C0.38,-0.153 0.393,-0.166 0.402,-0.183C0.411,-0.201 0.416,-0.221 0.416,-0.243C0.416,-0.265 0.411,-0.285 0.402,-0.302C0.393,-0.32 0.38,-0.333 0.363,-0.343C0.347,-0.353 0.328,-0.358 0.306,-0.358C0.285,-0.358 0.266,-0.353 0.25,-0.343C0.233,-0.333 0.221,-0.32 0.211,-0.303C0.203,-0.286 0.198,-0.266 0.198,-0.243C0.198,-0.22 0.203,-0.2 0.212,-0.183C0.221,-0.166 0.234,-0.152 0.25,-0.143C0.267,-0.133 0.286,-0.128 0.307,-0.128Z" style="fill:rgb(26,58,74);fill-rule:nonzero;"/>
                </g>
                <g transform="matrix(288,0,0,288,1099.76,275.088)">
                </g>
            </g>
            <g transform="matrix(0.84343,0,0,1.143121,229.979969,-150.780145)">
                <g transform="matrix(4.469877,0,0,1.475649,1152.971609,1400.479991)">
                    <rect x="0" y="0" width="11" height="35" style="fill:rgb(45,106,122);"/>
                </g>
                <g transform="matrix(4.469877,0,0,4.001063,1354.617045,1350.76422)">
                    <path d="M0,0C3.761,0.624 6.19,2.348 9.25,4.562C10.142,5.203 11.034,5.844 11.953,6.504C12.966,7.244 12.966,7.244 14,8C9.484,16.387 9.484,16.387 6,19C4.086,18.926 4.086,18.926 2,18C0.227,15.637 0.227,15.637 -1.375,12.688C-1.919,11.722 -2.463,10.756 -3.023,9.762C-4,7 -4,7 -3.289,4.832C-2.864,4.227 -2.438,3.623 -2,3C-1.34,2.01 -0.68,1.02 0,0Z" style="fill:rgb(217,119,87);fill-rule:nonzero;"/>
                </g>
                <g transform="matrix(4.469877,0,0,4.001063,1367.311498,1302.751456)">
                    <path d="M0,0C1.771,-0.027 3.542,-0.046 5.312,-0.062C6.299,-0.074 7.285,-0.086 8.301,-0.098C11,0 11,0 14,1C14.194,6.527 13.748,10.756 12,16C8.785,15.338 6.19,14.195 3.312,12.625C2.525,12.205 1.737,11.785 0.926,11.352C-1,10 -1,10 -2,7C-1.402,4.648 -0.741,2.311 0,0Z" style="fill:rgb(26,58,74);fill-rule:nonzero;"/>
                </g>
                <g transform="matrix(4.219877,0,0,4.06773,1413.230153,1229.732311)">
                    <path d="M0,0C2.46,5.844 3,8.239 3,15L-11,15C-11.66,12.03 -12.32,9.06 -13,6C-3.462,0 -3.462,0 0,0Z" style="fill:rgb(217,119,87);fill-rule:nonzero;"/>
                </g>
                <g transform="matrix(4.469877,0,0,4.001063,1349.431987,1174.71742)">
                    <path d="M0,0C5.314,2.709 8.421,5.229 12,10C10.428,11.203 8.842,12.387 7.25,13.562C6.368,14.224 5.487,14.885 4.578,15.566C2,17 2,17 -0.188,16.844C-2.657,15.694 -4.189,14.005 -6,12C-4.681,7.385 -2.786,3.901 0,0Z" style="fill:rgb(26,58,74);fill-rule:nonzero;"/>
                </g>
                <g transform="matrix(4.469877,0,0,4.001063,1188.516388,1190.721675)">
                    <path d="M0,0C3.792,1.49 5.806,3.587 8,7C7.926,9.516 7.222,10.655 5.875,12.75C2.942,14.705 0.422,14.311 -3,14C-5,12 -5,12 -5.438,9.25C-4.838,4.8 -3.063,3.217 0,0Z" style="fill:rgb(196,90,60);fill-rule:nonzero;"/>
                </g>
                <g transform="matrix(4.439517,0.520092,-0.465543,3.973887,1275.617891,1159.507388)">
                    <path d="M0,0C8.398,-0.195 8.398,-0.195 11,0C11.66,0.66 12.32,1.32 13,2C12.436,3.653 11.848,5.297 11.25,6.938C10.925,7.854 10.6,8.771 10.266,9.715C9,12 9,12 7.109,12.879C5,13 5,13 1,12C0.67,8.04 0.34,4.08 0,0Z" style="fill:rgb(217,119,87);fill-rule:nonzero;"/>
                </g>
                <g transform="matrix(4.469877,0,0,4.001063,1260.034431,1162.71423)">
                    <path d="M0,0C0.33,3.96 0.66,7.92 1,12C-3,14 -3,14 -6,14C-7.422,12.355 -7.422,12.355 -8.75,10.188C-9.199,9.48 -9.647,8.772 -10.109,8.043C-11,6 -11,6 -10,3C-6.507,1.253 -3.932,0 0,0Z" style="fill:rgb(26,58,74);fill-rule:nonzero;"/>
                </g>
                <g transform="matrix(6.079034,0,0,6.28167,1332.446452,1399.417153)">
                    <path d="M0,0C2.5,2.174 3.436,3.73 4,7C2.68,7.33 1.36,7.66 0,8L0,0Z" style="fill:rgb(26,58,74);fill-rule:nonzero;"/>
                </g>
                <g transform="matrix(4.469877,0,0,2.468114,1214.434403,1365.743702)">
                    <rect x="0" y="0" width="11" height="35" style="fill:rgb(45,106,122);"/>
                </g>
                <g transform="matrix(4.469877,0,0,4.301514,1275.897197,1301.574716)">
                    <rect x="0" y="0" width="11" height="35" style="fill:rgb(45,106,122);"/>
                </g>
            </g>
        </g>
    </g>
</svg>
